<svg id="Calque_1" data-name="Calque 1" xmlns="http://www.w3.org/2000/svg" xmlns:xlink="http://www.w3.org/1999/xlink" viewBox="0 0 2093.99 155.07"><defs><style>.cls-1{fill:url(#Dégradé_sans_nom);}.cls-2{fill:url(#Dégradé_sans_nom-2);}.cls-3{fill:url(#Dégradé_sans_nom_2);}.cls-4{fill:url(#Dégradé_sans_nom_2-2);}.cls-5{fill:url(#Dégradé_sans_nom_3);}.cls-6{fill:url(#Dégradé_sans_nom_4);}.cls-7{fill:url(#Dégradé_sans_nom_4-2);}.cls-8{fill:url(#Dégradé_sans_nom_5);}.cls-9{fill:url(#Dégradé_sans_nom_6);}.cls-10{fill:url(#Dégradé_sans_nom_7);}.cls-11,.cls-12{fill:none;stroke-miterlimit:10;}.cls-11{stroke-width:4px;stroke:url(#Dégradé_sans_nom_8);}.cls-12{stroke-width:2px;stroke:url(#Dégradé_sans_nom_11);}</style><linearGradient id="Dégradé_sans_nom" x1="1047.57" y1="2.21" x2="1047.57" y2="151.29" gradientTransform="translate(2093.98 153.5) rotate(180)" gradientUnits="userSpaceOnUse"><stop offset="0" stop-color="#dbe5ff"/><stop offset="1" stop-color="#fff" stop-opacity="0"/></linearGradient><linearGradient id="Dégradé_sans_nom-2" x1="1046.41" y1="151.29" x2="1046.41" y2="151.29" gradientTransform="matrix(1, 0, 0, 1, 0, 0)" xlink:href="#Dégradé_sans_nom"/><linearGradient id="Dégradé_sans_nom_2" x1="1294.81" y1="76.08" x2="1396.15" y2="76.08" gradientUnits="userSpaceOnUse"><stop offset="0" stop-color="#fff" stop-opacity="0"/><stop offset="1" stop-color="#dbe5ff"/></linearGradient><linearGradient id="Dégradé_sans_nom_2-2" x1="1390.2" y1="153.18" x2="1396.84" y2="153.18" xlink:href="#Dégradé_sans_nom_2"/><linearGradient id="Dégradé_sans_nom_3" x1="1545.8" y1="75.77" x2="1740.84" y2="75.77" xlink:href="#Dégradé_sans_nom_2"/><linearGradient id="Dégradé_sans_nom_4" x1="2093.99" y1="154" x2="2093.99" y2="154" xlink:href="#Dégradé_sans_nom_2"/><linearGradient id="Dégradé_sans_nom_4-2" x1="1798.19" y1="75.65" x2="2088.84" y2="75.65" xlink:href="#Dégradé_sans_nom_2"/><linearGradient id="Dégradé_sans_nom_5" x1="696.68" y1="76.08" x2="798.01" y2="76.08" gradientTransform="matrix(1, 0, 0, 1, 0, 0)" xlink:href="#Dégradé_sans_nom"/><linearGradient id="Dégradé_sans_nom_6" x1="351.99" y1="75.77" x2="547.03" y2="75.77" gradientTransform="matrix(1, 0, 0, 1, 0, 0)" xlink:href="#Dégradé_sans_nom"/><linearGradient id="Dégradé_sans_nom_7" x1="4" y1="75.65" x2="294.64" y2="75.65" gradientTransform="matrix(1, 0, 0, 1, 0, 0)" xlink:href="#Dégradé_sans_nom"/><linearGradient id="Dégradé_sans_nom_8" x1="1.16" y1="53.26" x2="2093.99" y2="53.26" gradientTransform="matrix(1, 0, 0, -1, -1.16, 160)" gradientUnits="userSpaceOnUse"><stop offset="0" stop-color="#f1f5ff" stop-opacity="0"/><stop offset="0.5" stop-color="#dbe5ff"/><stop offset="1" stop-color="#fff" stop-opacity="0"/></linearGradient><linearGradient id="Dégradé_sans_nom_11" x1="1.16" y1="105.61" x2="2093.99" y2="105.61" xlink:href="#Dégradé_sans_nom_8"/></defs><rect class="cls-1" x="1043.91" y="2.21" width="5" height="149.08"/><rect class="cls-2" x="1043.91" y="151.29" width="5"/><polygon class="cls-3" points="1299.01 0.86 1294.81 3.57 1390.2 151.29 1396.15 151.29 1299.01 0.86"/><polygon class="cls-4" points="1396.84 152.36 1396.15 151.29 1390.2 151.29 1392.64 155.07 1396.84 152.36"/><polygon class="cls-5" points="1548.9 0.25 1545.8 4.18 1732.75 151.29 1740.84 151.29 1548.9 0.25"/><polygon class="cls-6" points="2093.99 154 2093.99 154 2093.99 154 2093.99 154"/><polygon class="cls-7" points="1800.51 0 1798.19 4.43 2078.07 151.29 2088.84 151.29 1800.51 0"/><polygon class="cls-8" points="798.01 3.57 793.81 0.86 696.68 151.29 702.63 151.29 798.01 3.57"/><polygon class="cls-9" points="547.03 4.18 543.93 0.25 351.99 151.29 360.08 151.29 547.03 4.18"/><polygon class="cls-10" points="294.64 4.43 292.32 0 4 151.29 14.76 151.29 294.64 4.43"/><line class="cls-11" y1="106.74" x2="2092.83" y2="106.74"/><line class="cls-12" y1="54.39" x2="2092.83" y2="54.39"/></svg>