<svg id="Calque_1" data-name="Calque 1" xmlns="http://www.w3.org/2000/svg" xmlns:xlink="http://www.w3.org/1999/xlink" viewBox="0 0 2095.15 158.43"><defs><style>.cls-1,.cls-2,.cls-3,.cls-4,.cls-5,.cls-6,.cls-7,.cls-8,.cls-9{fill:none;stroke-miterlimit:10;}.cls-1,.cls-2,.cls-3,.cls-4,.cls-5,.cls-6,.cls-7{stroke-width:5px;}.cls-1{stroke:url(#Dégradé_sans_nom_14);}.cls-2{stroke:url(#Dégradé_sans_nom_21);}.cls-3{stroke:url(#Dégradé_sans_nom_21-2);}.cls-4{stroke:url(#Dégradé_sans_nom_18);}.cls-5{stroke:url(#Dégradé_sans_nom_14-2);}.cls-6{stroke:url(#Dégradé_sans_nom_14-3);}.cls-7{stroke:url(#Dégradé_sans_nom_14-4);}.cls-8{stroke-width:4px;stroke:url(#Dégradé_sans_nom_29);}.cls-9{stroke-width:2px;stroke:url(#Dégradé_sans_nom_29-2);}</style><linearGradient id="Dégradé_sans_nom_14" x1="1047.57" y1="151.29" x2="1047.57" y2="2.21" gradientUnits="userSpaceOnUse"><stop offset="0" stop-color="#dbe5ff"/><stop offset="1" stop-color="#fff" stop-opacity="0"/></linearGradient><linearGradient id="Dégradé_sans_nom_21" x1="1295.97" y1="77.96" x2="1398" y2="77.96" gradientUnits="userSpaceOnUse"><stop offset="0" stop-color="#fff" stop-opacity="0"/><stop offset="1" stop-color="#dbe5ff"/></linearGradient><linearGradient id="Dégradé_sans_nom_21-2" x1="1546.96" y1="77.96" x2="1742.58" y2="77.96" xlink:href="#Dégradé_sans_nom_21"/><linearGradient id="Dégradé_sans_nom_18" x1="1799.35" y1="79.21" x2="2095.15" y2="79.21" xlink:href="#Dégradé_sans_nom_21"/><linearGradient id="Dégradé_sans_nom_14-2" x1="697.15" y1="77.96" x2="799.17" y2="77.96" xlink:href="#Dégradé_sans_nom_14"/><linearGradient id="Dégradé_sans_nom_14-3" x1="352.57" y1="77.96" x2="548.19" y2="77.96" xlink:href="#Dégradé_sans_nom_14"/><linearGradient id="Dégradé_sans_nom_14-4" x1="0" y1="79.21" x2="295.8" y2="79.21" xlink:href="#Dégradé_sans_nom_14"/><linearGradient id="Dégradé_sans_nom_29" x1="1.16" y1="106.74" x2="2093.99" y2="106.74" gradientUnits="userSpaceOnUse"><stop offset="0" stop-color="#f1f5ff" stop-opacity="0"/><stop offset="0.5" stop-color="#dbe5ff"/><stop offset="1" stop-color="#fff" stop-opacity="0"/></linearGradient><linearGradient id="Dégradé_sans_nom_29-2" x1="1.16" y1="54.39" x2="2093.99" y2="54.39" xlink:href="#Dégradé_sans_nom_29"/></defs><line class="cls-1" x1="1047.57" y1="151.29" x2="1047.57" y2="2.21"/><line class="cls-2" x1="1395.9" y1="153.71" x2="1298.07" y2="2.21"/><line class="cls-3" x1="1741.03" y1="153.71" x2="1548.51" y2="2.21"/><line class="cls-4" x1="1800.51" y1="2.21" x2="2093.99" y2="156.21"/><line class="cls-5" x1="699.25" y1="153.71" x2="797.07" y2="2.21"/><line class="cls-6" x1="354.12" y1="153.71" x2="546.64" y2="2.21"/><line class="cls-7" x1="294.64" y1="2.21" x2="1.16" y2="156.21"/><line class="cls-8" x1="1.16" y1="106.74" x2="2093.99" y2="106.74"/><line class="cls-9" x1="1.16" y1="54.39" x2="2093.99" y2="54.39"/></svg>